<svg xmlns="http://www.w3.org/2000/svg" xmlns:xlink="http://www.w3.org/1999/xlink" width="218" height="440" viewBox="0 0 218 440"><defs><clipPath id="a"><rect width="50" height="302" fill="none"/></clipPath><clipPath id="b"><rect width="50" height="372" fill="none"/></clipPath><clipPath id="c"><rect width="50" height="374" fill="none"/></clipPath><clipPath id="d"><rect width="50" height="438" fill="none"/></clipPath><clipPath id="e"><rect width="50" height="147" fill="none"/></clipPath><clipPath id="f"><rect width="50" height="143" fill="none"/></clipPath><clipPath id="g"><rect width="50" height="223" fill="none"/></clipPath><clipPath id="h"><rect width="50" height="220" fill="none"/></clipPath><clipPath id="i"><rect width="50" height="145" fill="none"/></clipPath></defs><g transform="translate(-105 -61)"><g transform="translate(105 132)" clip-path="url(#a)"><g transform="translate(-99 -135)"><g transform="translate(149 135) rotate(90)" fill="none"><path d="M29,0,58,50H0Z" stroke="none"/><path d="M 29 9.965744018554688 L 8.680130004882813 45 L 49.31986999511719 45 L 29 9.965744018554688 M 29 0 L 58 50 L 0 50 L 29 0 Z" stroke="none" fill="#cbe2f4"/></g></g><g transform="translate(-99 -57)"><g transform="translate(149 135) rotate(90)" fill="none"><path d="M29,0,58,50H0Z" stroke="none"/><path d="M 29 9.965744018554688 L 8.680130004882813 45 L 49.31986999511719 45 L 29 9.965744018554688 M 29 0 L 58 50 L 0 50 L 29 0 Z" stroke="none" fill="#cbe2f4"/></g></g><g transform="translate(-99 21)"><g transform="translate(149 135) rotate(90)" fill="none"><path d="M29,0,58,50H0Z" stroke="none"/><path d="M 29 9.965744018554688 L 8.680130004882813 45 L 49.31986999511719 45 L 29 9.965744018554688 M 29 0 L 58 50 L 0 50 L 29 0 Z" stroke="none" fill="#cbe2f4"/></g></g><g transform="translate(-99 99)"><g transform="translate(149 135) rotate(90)" fill="none"><path d="M29,0,58,50H0Z" stroke="none"/><path d="M 29 9.965744018554688 L 8.680130004882813 45 L 49.31986999511719 45 L 29 9.965744018554688 M 29 0 L 58 50 L 0 50 L 29 0 Z" stroke="none" fill="#cbe2f4"/></g></g></g><g transform="translate(155 464) rotate(180)" clip-path="url(#b)"><g transform="translate(-99 -135)"><g transform="translate(149 135) rotate(90)" fill="none"><path d="M29,0,58,50H0Z" stroke="none"/><path d="M 29 9.965744018554688 L 8.680130004882813 45 L 49.31986999511719 45 L 29 9.965744018554688 M 29 0 L 58 50 L 0 50 L 29 0 Z" stroke="none" fill="#cbe2f4"/></g></g><g transform="translate(-99 -57)"><g transform="translate(149 135) rotate(90)" fill="none"><path d="M29,0,58,50H0Z" stroke="none"/><path d="M 29 9.965744018554688 L 8.680130004882813 45 L 49.31986999511719 45 L 29 9.965744018554688 M 29 0 L 58 50 L 0 50 L 29 0 Z" stroke="none" fill="#cbe2f4"/></g></g><g transform="translate(-99 21)"><g transform="translate(149 135) rotate(90)" fill="none"><path d="M29,0,58,50H0Z" stroke="none"/><path d="M 29 9.965744018554688 L 8.680130004882813 45 L 49.31986999511719 45 L 29 9.965744018554688 M 29 0 L 58 50 L 0 50 L 29 0 Z" stroke="none" fill="#cbe2f4"/></g></g><g transform="translate(-99 99)"><g transform="translate(149 135) rotate(90)" fill="none"><path d="M29,0,58,50H0Z" stroke="none"/><path d="M 29 9.965744018554688 L 8.680130004882813 45 L 49.31986999511719 45 L 29 9.965744018554688 M 29 0 L 58 50 L 0 50 L 29 0 Z" stroke="none" fill="#cbe2f4"/></g></g><g transform="translate(-99 177)"><g transform="translate(149 135) rotate(90)" fill="none"><path d="M29,0,58,50H0Z" stroke="none"/><path d="M 29 9.965744018554688 L 8.680130004882813 45 L 49.31986999511719 45 L 29 9.965744018554688 M 29 0 L 58 50 L 0 50 L 29 0 Z" stroke="none" fill="#cbe2f4"/></g></g></g><g transform="translate(161 97)" clip-path="url(#c)"><g transform="translate(-99 -135)"><g transform="translate(149 135) rotate(90)" fill="none"><path d="M29,0,58,50H0Z" stroke="none"/><path d="M 29 9.965744018554688 L 8.680130004882813 45 L 49.31986999511719 45 L 29 9.965744018554688 M 29 0 L 58 50 L 0 50 L 29 0 Z" stroke="none" fill="#154872"/></g></g><g transform="translate(-99 -58)"><g transform="translate(149 135) rotate(90)" fill="none"><path d="M29,0,58,50H0Z" stroke="none"/><path d="M 29 9.965744018554688 L 8.680130004882813 45 L 49.31986999511719 45 L 29 9.965744018554688 M 29 0 L 58 50 L 0 50 L 29 0 Z" stroke="none" fill="#154872"/></g></g><g transform="translate(-99 19)"><g transform="translate(149 135) rotate(90)" fill="none"><path d="M29,0,58,50H0Z" stroke="none"/><path d="M 29 9.965744018554688 L 8.680130004882813 45 L 49.31986999511719 45 L 29 9.965744018554688 M 29 0 L 58 50 L 0 50 L 29 0 Z" stroke="none" fill="#154872"/></g></g><g transform="translate(-99 96)"><g transform="translate(149 135) rotate(90)" fill="none"><path d="M29,0,58,50H0Z" stroke="none"/><path d="M 29 9.965744018554688 L 8.680130004882813 45 L 49.31986999511719 45 L 29 9.965744018554688 M 29 0 L 58 50 L 0 50 L 29 0 Z" stroke="none" fill="#154872"/></g></g><g transform="translate(-99 173)"><g transform="translate(149 135) rotate(90)" fill="none"><path d="M29,0,58,50H0Z" stroke="none"/><path d="M 29 9.965744018554688 L 8.680130004882813 45 L 49.31986999511719 45 L 29 9.965744018554688 M 29 0 L 58 50 L 0 50 L 29 0 Z" stroke="none" fill="#154872"/></g></g></g><g transform="translate(211 499) rotate(180)" clip-path="url(#d)"><g transform="translate(-99 -135)"><g transform="translate(149 135) rotate(90)" fill="none"><path d="M29,0,58,50H0Z" stroke="none"/><path d="M 29 9.965744018554688 L 8.680130004882813 45 L 49.31986999511719 45 L 29 9.965744018554688 M 29 0 L 58 50 L 0 50 L 29 0 Z" stroke="none" fill="#154872"/></g></g><g transform="translate(-99 -59)"><g transform="translate(149 135) rotate(90)" fill="none"><path d="M29,0,58,50H0Z" stroke="none"/><path d="M 29 9.965744018554688 L 8.680130004882813 45 L 49.31986999511719 45 L 29 9.965744018554688 M 29 0 L 58 50 L 0 50 L 29 0 Z" stroke="none" fill="#154872"/></g></g><g transform="translate(-99 17)"><g transform="translate(149 135) rotate(90)" fill="none"><path d="M29,0,58,50H0Z" stroke="none"/><path d="M 29 9.965744018554688 L 8.680130004882813 45 L 49.31986999511719 45 L 29 9.965744018554688 M 29 0 L 58 50 L 0 50 L 29 0 Z" stroke="none" fill="#154872"/></g></g><g transform="translate(-99 93)"><g transform="translate(149 135) rotate(90)" fill="none"><path d="M29,0,58,50H0Z" stroke="none"/><path d="M 29 9.965744018554688 L 8.680130004882813 45 L 49.31986999511719 45 L 29 9.965744018554688 M 29 0 L 58 50 L 0 50 L 29 0 Z" stroke="none" fill="#154872"/></g></g><g transform="translate(-99 169)"><g transform="translate(149 135) rotate(90)" fill="none"><path d="M29,0,58,50H0Z" stroke="none"/><path d="M 29 9.965744018554688 L 8.680130004882813 45 L 49.31986999511719 45 L 29 9.965744018554688 M 29 0 L 58 50 L 0 50 L 29 0 Z" stroke="none" fill="#154872"/></g></g><g transform="translate(-99 245)"><g transform="translate(149 135) rotate(90)" fill="none"><path d="M29,0,58,50H0Z" stroke="none"/><path d="M 29 9.965744018554688 L 8.680130004882813 45 L 49.31986999511719 45 L 29 9.965744018554688 M 29 0 L 58 50 L 0 50 L 29 0 Z" stroke="none" fill="#154872"/></g></g></g><g transform="translate(217 97)" clip-path="url(#e)"><g transform="translate(-267 -51)"><g transform="translate(267 109) rotate(-90)" fill="none" opacity="0.9"><path d="M29,0,58,50H0Z" stroke="none"/><path d="M 29 9.965744018554688 L 8.680130004882813 45 L 49.31986999511719 45 L 29 9.965744018554688 M 29 0 L 58 50 L 0 50 L 29 0 Z" stroke="none" fill="#154872"/></g></g><g transform="translate(-267 27)"><g transform="translate(267 109) rotate(-90)" fill="none" opacity="0.9"><path d="M29,0,58,50H0Z" stroke="none"/><path d="M 29 9.965744018554688 L 8.680130004882813 45 L 49.31986999511719 45 L 29 9.965744018554688 M 29 0 L 58 50 L 0 50 L 29 0 Z" stroke="none" fill="#154872"/></g></g></g><g transform="translate(267 215) rotate(90)" fill="none"><path d="M29,0,58,50H0Z" stroke="none"/><path d="M 29 9.965744018554688 L 8.680130004882813 45 L 49.31986999511719 45 L 29 9.965744018554688 M 29 0 L 58 50 L 0 50 L 29 0 Z" stroke="none" fill="#154872"/></g><g transform="translate(267 61) rotate(90)" fill="none"><path d="M29,0,58,50H0Z" stroke="none"/><path d="M 29 9.965744018554688 L 8.680130004882813 45 L 49.31986999511719 45 L 29 9.965744018554688 M 29 0 L 58 50 L 0 50 L 29 0 Z" stroke="none" fill="#154872"/></g><g transform="translate(323 229) rotate(-180)" clip-path="url(#f)"><g transform="translate(-267 -51)"><g transform="translate(267 109) rotate(-90)" fill="none" opacity="0.9"><path d="M29,0,58,50H0Z" stroke="none"/><path d="M 29 9.965744018554688 L 8.680130004882813 45 L 49.31986999511719 45 L 29 9.965744018554688 M 29 0 L 58 50 L 0 50 L 29 0 Z" stroke="none" fill="#154872"/></g></g><g transform="translate(-267 23)"><g transform="translate(267 109) rotate(-90)" fill="none" opacity="0.9"><path d="M29,0,58,50H0Z" stroke="none"/><path d="M 29 9.965744018554688 L 8.680130004882813 45 L 49.31986999511719 45 L 29 9.965744018554688 M 29 0 L 58 50 L 0 50 L 29 0 Z" stroke="none" fill="#154872"/></g></g></g><g transform="translate(273 194) rotate(-90)" fill="none"><path d="M29,0,58,50H0Z" stroke="none"/><path d="M 29 9.965744018554688 L 8.680130004882813 45 L 49.31986999511719 45 L 29 9.965744018554688 M 29 0 L 58 50 L 0 50 L 29 0 Z" stroke="none" fill="#154872"/></g><g transform="translate(267 501) rotate(180)" clip-path="url(#g)"><g transform="translate(-211 -406)"><g transform="translate(211 406)"><g transform="translate(0 58) rotate(-90)" fill="none"><path d="M29,0,58,50H0Z" stroke="none"/><path d="M 29 9.965744018554688 L 8.680130004882813 45 L 49.31986999511719 45 L 29 9.965744018554688 M 29 0 L 58 50 L 0 50 L 29 0 Z" stroke="none" fill="#79aacc"/></g></g></g><g transform="translate(-211 -328)"><g transform="translate(211 406)"><g transform="translate(0 58) rotate(-90)" fill="none"><path d="M29,0,58,50H0Z" stroke="none"/><path d="M 29 9.965744018554688 L 8.680130004882813 45 L 49.31986999511719 45 L 29 9.965744018554688 M 29 0 L 58 50 L 0 50 L 29 0 Z" stroke="none" fill="#79aacc"/></g></g></g><g transform="translate(-211 -250)"><g transform="translate(211 406)"><g transform="translate(0 58) rotate(-90)" fill="none"><path d="M29,0,58,50H0Z" stroke="none"/><path d="M 29 9.965744018554688 L 8.680130004882813 45 L 49.31986999511719 45 L 29 9.965744018554688 M 29 0 L 58 50 L 0 50 L 29 0 Z" stroke="none" fill="#79aacc"/></g></g></g></g><g transform="translate(217 252)" clip-path="url(#h)"><g transform="translate(-211 -406)"><g transform="translate(211 406)"><g transform="translate(0 58) rotate(-90)" fill="none"><path d="M29,0,58,50H0Z" stroke="none"/><path d="M 29 9.965744018554688 L 8.680130004882813 45 L 49.31986999511719 45 L 29 9.965744018554688 M 29 0 L 58 50 L 0 50 L 29 0 Z" stroke="none" fill="#79aacc"/></g></g></g><g transform="translate(-211 -330)"><g transform="translate(211 406)"><g transform="translate(0 58) rotate(-90)" fill="none"><path d="M29,0,58,50H0Z" stroke="none"/><path d="M 29 9.965744018554688 L 8.680130004882813 45 L 49.31986999511719 45 L 29 9.965744018554688 M 29 0 L 58 50 L 0 50 L 29 0 Z" stroke="none" fill="#79aacc"/></g></g></g><g transform="translate(-211 -254)"><g transform="translate(211 406)"><g transform="translate(0 58) rotate(-90)" fill="none"><path d="M29,0,58,50H0Z" stroke="none"/><path d="M 29 9.965744018554688 L 8.680130004882813 45 L 49.31986999511719 45 L 29 9.965744018554688 M 29 0 L 58 50 L 0 50 L 29 0 Z" stroke="none" fill="#79aacc"/></g></g></g></g><g transform="translate(273 244)" clip-path="url(#i)"><g transform="translate(-211 -51)"><g transform="translate(261 61) rotate(90)" fill="none"><path d="M29,0,58,50H0Z" stroke="none"/><path d="M 29 9.965744018554688 L 8.680130004882813 45 L 49.31986999511719 45 L 29 9.965744018554688 M 29 0 L 58 50 L 0 50 L 29 0 Z" stroke="none" fill="#79aacc"/></g></g><g transform="translate(-211 27)"><g transform="translate(261 61) rotate(90)" fill="none"><path d="M29,0,58,50H0Z" stroke="none"/><path d="M 29 9.965744018554688 L 8.680130004882813 45 L 49.31986999511719 45 L 29 9.965744018554688 M 29 0 L 58 50 L 0 50 L 29 0 Z" stroke="none" fill="#79aacc"/></g></g></g><g transform="translate(273 273) rotate(-90)" fill="none"><path d="M29,0,58,50H0Z" stroke="none"/><path d="M 29 9.965744018554688 L 8.680130004882813 45 L 49.31986999511719 45 L 29 9.965744018554688 M 29 0 L 58 50 L 0 50 L 29 0 Z" stroke="none" fill="#79aacc"/></g></g></svg>