<svg id="erqgelaqiryf1" xmlns="http://www.w3.org/2000/svg" xmlns:xlink="http://www.w3.org/1999/xlink" viewBox="0 0 86.990000 149.330000" shape-rendering="geometricPrecision" text-rendering="geometricPrecision"><g id="erqgelaqiryf2" opacity="0.79"><path id="erqgelaqiryf3" d="M101.520000,98L101.520000,76.570000L106.210000,79.280000L118.700000,86.550000C119.790000,87.190000,119.790000,87.430000,118.700000,88.070000L102.510000,97.490000Z" transform="matrix(1 0 0 1 -56.63000000000000 -25.34000000000000)" fill="none" stroke="rgb(49,49,49)" stroke-width="1" stroke-miterlimit="10"/><path id="erqgelaqiryf4" d="M80.510000,87.200000L98.770000,76.570000L98.770000,97.830000Z" transform="matrix(1 0 0 1 -56.63000000000000 -25.34000000000000)" fill="none" stroke="rgb(49,49,49)" stroke-width="1" stroke-miterlimit="10" stroke-dashoffset="63.520000" stroke-dasharray="63.520000"/><path id="erqgelaqiryf5" d="M97.340000,150.560000L79.130000,161.170000L79.130000,140Z" transform="matrix(1 0 0 1 -56.63000000000000 -25.34000000000000)" fill="none" stroke="rgb(49,49,49)" stroke-width="1" stroke-miterlimit="10" stroke-dashoffset="63.300000" stroke-dasharray="63.300000"/><path id="erqgelaqiryf6" d="M80.600000,163L98.780000,152.420000L98.780000,173.590000Z" transform="matrix(1 0 0 1 -56.63000000000000 -25.34000000000000)" fill="none" stroke="rgb(49,49,49)" stroke-width="1" stroke-miterlimit="10" stroke-dashoffset="63.240000" stroke-dasharray="63.240000"/><path id="erqgelaqiryf7" d="M79.130000,135.770000L79.130000,114.630000L97.230000,125.170000Z" transform="matrix(1 0 0 1 -56.63000000000000 -25.34000000000000)" fill="none" stroke="rgb(49,49,49)" stroke-width="1" stroke-miterlimit="10" stroke-dashoffset="63.060000" stroke-dasharray="63.060000"/><path id="erqgelaqiryf8" d="M79.140000,64.080000L97.250000,74.620000L79.140000,85.160000Z" transform="matrix(1 0 0 1 -56.63000000000000 -25.34000000000000)" fill="none" stroke="rgb(49,49,49)" stroke-width="1" stroke-miterlimit="10" stroke-dashoffset="62.990000" stroke-dasharray="62.990000"/><path id="erqgelaqiryf9" d="M121.180000,64.070000L121.180000,85.160000L103.070000,74.620000Z" transform="matrix(1 0 0 1 -56.63000000000000 -25.34000000000000)" fill="none" stroke="rgb(49,49,49)" stroke-width="1" stroke-miterlimit="10"/><path id="erqgelaqiryf10" d="M97.250000,99.790000L79.180000,110.310000L79.180000,89.310000Z" transform="matrix(1 0 0 1 -56.63000000000000 -25.45000000000000)" fill="none" stroke="rgb(49,49,49)" stroke-width="1" stroke-miterlimit="10" stroke-dashoffset="62.800000" stroke-dasharray="62.800000"/><path id="erqgelaqiryf11" d="M143.120000,51.410000L143.120000,72.410000L125,61.920000Z" transform="matrix(1 0 0 1 -56.63000000000000 -25.34000000000000)" fill="none" stroke="rgb(49,49,49)" stroke-width="1" stroke-miterlimit="10"/><path id="erqgelaqiryf12" d="M98.810000,26.210000L98.810000,47.210000L80.710000,36.740000Z" transform="matrix(1 0 0 1 -56.58000000000001 -25.30000000000000)" fill="none" stroke="rgb(49,49,49)" stroke-width="1" stroke-miterlimit="10" stroke-dashoffset="62.850000" stroke-dasharray="62.850000"/><path id="erqgelaqiryf13" d="M101.520000,47.250000L101.520000,26.250000L119.610000,36.780000Z" transform="matrix(1 0 0 1 -56.63000000000000 -25.34000000000000)" fill="none" stroke="rgb(49,49,49)" stroke-width="1" stroke-miterlimit="10"/><path id="erqgelaqiryf14" d="M123.460000,38.940000L141.460000,49.440000L123.460000,60Z" transform="matrix(1 0 0 1 -56.63000000000000 -25.34000000000000)" fill="none" stroke="rgb(49,49,49)" stroke-width="1" stroke-miterlimit="10"/><path id="erqgelaqiryf15" d="M103.130000,49.230000L121.180000,38.720000L121.180000,59.720000Z" transform="matrix(1 0 0 1 -56.63000000000000 -25.34000000000000)" fill="none" stroke="rgb(49,49,49)" stroke-width="1" stroke-miterlimit="10"/><path id="erqgelaqiryf16" d="M79.140000,59.740000L79.140000,38.740000L97.140000,49.250000Z" transform="matrix(1 0 0 1 -56.63000000000000 -25.34000000000000)" fill="none" stroke="rgb(49,49,49)" stroke-width="1" stroke-miterlimit="10" stroke-dashoffset="62.680000" stroke-dasharray="62.680000"/><path id="erqgelaqiryf17" d="M98,127.580000L81.600000,137.090000C81.388409,137.206609,81.184644,137.336885,80.990000,137.480000L80.330000,137.900000L81.500000,138.600000L81.500000,138.600000L81.580000,138.650000L97.880000,148.140000C98.170000,148.310000,98.480000,148.460000,98.810000,148.640000L98.810000,127.140000C98.480000,127.320000,98.230000,127.440000,98,127.580000Z" transform="matrix(1 0 0 1 -56.63000000000000 -25.34000000000000)" fill="none" stroke="rgb(49,49,49)" stroke-width="1" stroke-miterlimit="10" stroke-dashoffset="64.260000" stroke-dasharray="63.930000"/><path id="erqgelaqiryf18" d="M81.610000,111.760000L81.610000,111.760000L81.340000,111.940000L81.340000,111.940000C81.245797,111.997139,81.155589,112.060619,81.070000,112.130000L80.510000,112.510000L81.170000,112.930000L81.540000,113.170000L81.650000,113.230000L81.650000,113.230000L98.180000,122.850000C98.399173,122.960585,98.626507,123.054193,98.860000,123.130000L98.860000,101.710000C93,105.120000,87.280000,108.430000,81.610000,111.760000Z" transform="matrix(1 0 0 1 -56.63000000000000 -25.34000000000000)" fill="none" stroke="rgb(49,49,49)" stroke-width="1" stroke-miterlimit="10" stroke-dashoffset="63.930000" stroke-dasharray="63.930000"/><path id="erqgelaqiryf19" d="M141.800000,74.590000L140.960000,74.050000L140.960000,74.050000C140.860000,73.990000,140.760000,73.920000,140.640000,73.860000L128.710000,66.860000L123.460000,63.860000L123.460000,85.340000C123.860000,85.130000,124.170000,84.970000,124.460000,84.800000Q132.560000,80.090000,140.650000,75.370000C140.837834,75.265888,141.018262,75.148944,141.190000,75.020000Z" transform="matrix(1 0 0 1 -56.63000000000000 -25.34000000000000)" fill="none" stroke="rgb(49,49,49)" stroke-width="1" stroke-miterlimit="10"/><path id="erqgelaqiryf20" d="M81.670000,61.160000C81.478152,61.270178,81.294357,61.393822,81.120000,61.530000L80.460000,61.950000L81.630000,62.660000L81.630000,62.660000L81.690000,62.660000L97.690000,72C98.040000,72.200000,98.410000,72.380000,98.840000,72.600000L98.840000,51.200000Z" transform="matrix(1 0 0 1 -56.63000000000000 -25.34000000000000)" fill="none" stroke="rgb(49,49,49)" stroke-width="1" stroke-miterlimit="10" stroke-dashoffset="63.950000" stroke-dasharray="63.950000"/><path id="erqgelaqiryf21" d="M75.430000,87.200000L57.170000,76.570000L57.170000,97.830000Z" transform="matrix(1 0 0 1 -56.63000000000000 -25.34000000000000)" fill="none" stroke="rgb(184,0,26)" stroke-width="1" stroke-miterlimit="10"/><path id="erqgelaqiryf22" d="M58.600000,150.560000L76.820000,161.170000L76.820000,140Z" transform="matrix(1 0 0 1 -56.63000000000000 -25.34000000000000)" fill="none" stroke="rgb(184,0,26)" stroke-width="1" stroke-miterlimit="10"/><path id="erqgelaqiryf23" d="M76.820000,135.770000L76.820000,114.630000L58.710000,125.170000Z" transform="matrix(1 0 0 1 -56.63000000000000 -25.34000000000000)" fill="none" stroke="rgb(184,0,26)" stroke-width="1" stroke-miterlimit="10"/><path id="erqgelaqiryf24" d="M76.800000,64.080000L58.690000,74.620000L76.800000,85.160000Z" transform="matrix(1 0 0 1 -56.63000000000000 -25.34000000000000)" fill="none" stroke="rgb(184,0,26)" stroke-width="1" stroke-miterlimit="10" stroke-dashoffset="62.990000" stroke-dasharray="62.990000"/><path id="erqgelaqiryf25" d="M58.690000,99.790000L76.760000,110.310000L76.760000,89.310000Z" transform="matrix(1 0 0 1 -56.63000000000000 -25.34000000000000)" fill="none" stroke="rgb(184,0,26)" stroke-width="1" stroke-miterlimit="10"/><path id="erqgelaqiryf26" d="M76.800000,59.740000L76.800000,38.740000L58.800000,49.250000Z" transform="matrix(1 0 0 1 -56.63000000000000 -25.34000000000000)" fill="none" stroke="rgb(184,0,26)" stroke-width="1" stroke-miterlimit="10" stroke-dashoffset="62.680000" stroke-dasharray="62.680000"/><path id="erqgelaqiryf27" d="M57.940000,127.580000L74.340000,137.090000C74.553203,137.209307,74.760142,137.339478,74.960000,137.480000L75.610000,137.900000L74.440000,138.600000L74.440000,138.600000L74.360000,138.650000L58.060000,148.140000C57.770000,148.310000,57.460000,148.460000,57.130000,148.640000L57.130000,127.140000C57.470000,127.320000,57.710000,127.440000,57.940000,127.580000Z" transform="matrix(1 0 0 1 -56.63000000000000 -25.34000000000000)" fill="none" stroke="rgb(184,0,26)" stroke-width="1" stroke-miterlimit="10"/><path id="erqgelaqiryf28" d="M74.340000,111.760000L74.340000,111.760000L74.600000,111.940000L74.650000,111.940000C74.745786,111.994683,74.836189,112.058300,74.920000,112.130000L75.480000,112.510000L74.830000,112.930000C74.707708,113.016725,74.580859,113.096840,74.450000,113.170000L74.340000,113.230000L74.340000,113.230000Q66.060000,118.030000,57.800000,122.850000C57.583478,122.958862,57.359597,123.052424,57.130000,123.130000L57.130000,101.710000C63,105.120000,68.660000,108.430000,74.340000,111.760000Z" transform="matrix(1 0 0 1 -56.63000000000000 -25.34000000000000)" fill="none" stroke="rgb(184,0,26)" stroke-width="1" stroke-miterlimit="10"/><path id="erqgelaqiryf29" d="M74.270000,61.160000C74.463254,61.267904,74.647219,61.391662,74.820000,61.530000L75.480000,61.950000L74.310000,62.660000L74.310000,62.660000L74.250000,62.660000L58.270000,72C57.920000,72.200000,57.550000,72.380000,57.130000,72.600000L57.130000,51.200000Z" transform="matrix(1 0 0 1 -56.63000000000000 -25.34000000000000)" fill="none" stroke="rgb(184,0,26)" stroke-width="1" stroke-miterlimit="10" stroke-dashoffset="63.900000" stroke-dasharray="63.900000"/><path id="erqgelaqiryf30" d="M101.530000,123.340000L101.530000,101.800000L106.460000,104.660000L116.460000,110.480000Q117.860000,111.310000,119.280000,112.100000C119.860000,112.420000,119.870000,112.730000,119.280000,113.100000L107,120.170000C105.570000,121,104.170000,121.860000,102.750000,122.690000C102.400000,122.920000,102,123.100000,101.530000,123.340000Z" transform="matrix(1 0 0 1 -56.63000000000000 -25.34000000000000)" fill="none" stroke="rgb(17,103,92)" stroke-width="1" stroke-miterlimit="10"/><path id="erqgelaqiryf31" d="M102.790000,100L121.150000,89.320000L121.150000,110.690000Z" transform="matrix(1 0 0 1 -56.63000000000000 -25.34000000000000)" fill="none" stroke="rgb(17,103,92)" stroke-width="1" stroke-miterlimit="10"/><path id="erqgelaqiryf32" d="M121.140000,135.890000L102.800000,125.170000L121.140000,114.490000Z" transform="matrix(1 0 0 1 -56.63000000000000 -25.34000000000000)" fill="none" stroke="rgb(17,103,92)" stroke-width="1" stroke-miterlimit="10"/><path id="erqgelaqiryf33" d="M102.720000,150.560000L121.180000,139.820000L121.180000,161.300000Z" transform="matrix(1 0 0 1 -56.63000000000000 -25.34000000000000)" fill="none" stroke="rgb(17,103,92)" stroke-width="1" stroke-miterlimit="10"/><path id="erqgelaqiryf34" d="M101.490000,173.790000L101.490000,152.290000L120,163Z" transform="matrix(1 0 0 1 -56.63000000000000 -25.34000000000000)" fill="none" stroke="rgb(17,103,92)" stroke-width="1" stroke-miterlimit="10"/><path id="erqgelaqiryf35" d="M124.730000,87.310000L143.090000,98L143.090000,76.630000Z" transform="matrix(1 0 0 1 -56.63000000000000 -25.34000000000000)" fill="none" stroke="rgb(17,103,92)" stroke-width="1" stroke-miterlimit="10"/><path id="erqgelaqiryf36" d="M142,99.880000L141.350000,99.480000L141.350000,99.480000C140.350000,98.930000,139.400000,98.380000,138.430000,97.810000C135.100000,95.870000,131.790000,93.920000,128.430000,91.980000C126.920000,91.110000,125.430000,90.270000,123.870000,89.420000L123.870000,89.420000L123.520000,89.200000L123.520000,89.630000L123.520000,89.630000L123.520000,110.220000L123.520000,110.220000L123.520000,110.600000L123.870000,110.440000L123.870000,110.440000C124.180000,110.290000,124.510000,110.170000,124.810000,109.990000C127.170000,108.630000,129.530000,107.250000,131.890000,105.880000L141.330000,100.370000L141.440000,100.300000L141.440000,100.300000Z" transform="matrix(1 0 0 1 -56.63000000000000 -25.34000000000000)" fill="none" stroke="rgb(17,103,92)" stroke-width="1" stroke-miterlimit="10"/><path id="erqgelaqiryf37" d="M141.330000,125.690000L142.190000,125.180000L140.710000,124.280000L140.710000,124.280000L138.570000,123L127.300000,116.450000C126.060000,115.730000,124.800000,115.030000,123.450000,114.260000L123.450000,136C123.561968,135.987166,123.672464,135.963728,123.780000,135.930000L131.840000,131.240000L140.900000,125.940000L140.900000,125.940000L141.270000,125.730000Z" transform="matrix(1 0 0 1 -56.63000000000000 -25.34000000000000)" fill="none" stroke="rgb(17,103,92)" stroke-width="1" stroke-miterlimit="10"/><path id="erqgelaqiryf38" d="M120.320000,137.880000L119.320000,137.290000L119.320000,137.290000C118.420000,136.690000,117.470000,136.180000,116.540000,135.640000L106.440000,129.800000L101.540000,126.970000L101.540000,148.810000L119.810000,138.190000L119.810000,138.190000Z" transform="matrix(1 0 0 1 -56.63000000000000 -25.34000000000000)" fill="none" stroke="rgb(17,103,92)" stroke-width="1" stroke-miterlimit="10"/></g></svg>