<svg id="Layer_1" data-name="Layer 1" xmlns="http://www.w3.org/2000/svg" viewBox="0 0 86.99 149.33"><defs><style>.cls-1{opacity:0.79;}.cls-2,.cls-3,.cls-4{fill:none;stroke-miterlimit:10;}.cls-2{stroke:#313131;}.cls-3{stroke:#b8001a;}.cls-4{stroke:#11675c;}</style></defs><title>ipf logo</title><g class="cls-1"><path class="cls-2" d="M101.52,98V76.57l4.69,2.71,12.49,7.27c1.09.64,1.09.88,0,1.52l-16.19,9.42Z" transform="translate(-56.63 -25.34)"/><path class="cls-2" d="M80.51,87.2,98.77,76.57V97.83Z" transform="translate(-56.63 -25.34)"/><path class="cls-2" d="M97.34,150.56,79.13,161.17V140Z" transform="translate(-56.63 -25.34)"/><path class="cls-2" d="M80.6,163l18.18-10.58v21.17Z" transform="translate(-56.63 -25.34)"/><path class="cls-2" d="M79.13,135.77V114.63l18.1,10.54Z" transform="translate(-56.63 -25.34)"/><path class="cls-2" d="M79.14,64.08,97.25,74.62,79.14,85.16Z" transform="translate(-56.63 -25.34)"/><path class="cls-2" d="M121.18,64.07V85.16L103.07,74.62Z" transform="translate(-56.63 -25.34)"/><path class="cls-2" d="M97.25,99.79,79.18,110.31v-21Z" transform="translate(-56.63 -25.34)"/><path class="cls-2" d="M143.12,51.41v21L125,61.92Z" transform="translate(-56.63 -25.34)"/><path class="cls-2" d="M98.81,26.21v21L80.71,36.74Z" transform="translate(-56.63 -25.34)"/><path class="cls-2" d="M101.52,47.25v-21l18.09,10.53Z" transform="translate(-56.63 -25.34)"/><path class="cls-2" d="M123.46,38.94l18,10.5L123.46,60Z" transform="translate(-56.63 -25.34)"/><path class="cls-2" d="M103.13,49.23l18.05-10.51v21Z" transform="translate(-56.63 -25.34)"/><path class="cls-2" d="M79.14,59.74v-21l18,10.51Z" transform="translate(-56.63 -25.34)"/><path class="cls-2" d="M98,127.58l-16.4,9.51a5.56,5.56,0,0,0-.61.39l-.66.42,1.17.7h0l.08.05,16.3,9.49c.29.17.6.32.93.5v-21.5C98.48,127.32,98.23,127.44,98,127.58Z" transform="translate(-56.63 -25.34)"/><path class="cls-2" d="M81.61,111.76v0l-.27.18,0,0a2.43,2.43,0,0,0-.27.19l-.56.38.66.42.37.24.11.06h0l16.53,9.62a4.8,4.8,0,0,0,.68.28V101.71C93,105.12,87.28,108.43,81.61,111.76Z" transform="translate(-56.63 -25.34)"/><path class="cls-2" d="M141.8,74.59l-.84-.54h0c-.1-.06-.2-.13-.32-.19l-11.93-7-5.25-3V85.34c.4-.21.71-.37,1-.54q8.1-4.71,16.19-9.43a4.67,4.67,0,0,0,.54-.35Z" transform="translate(-56.63 -25.34)"/><path class="cls-2" d="M81.67,61.16a4.68,4.68,0,0,0-.55.37l-.66.42,1.17.71h0l.06,0,16,9.34c.35.2.72.38,1.15.6V51.2Z" transform="translate(-56.63 -25.34)"/><path class="cls-3" d="M75.43,87.2,57.17,76.57V97.83Z" transform="translate(-56.63 -25.34)"/><path class="cls-3" d="M58.6,150.56l18.22,10.61V140Z" transform="translate(-56.63 -25.34)"/><path class="cls-3" d="M76.82,135.77V114.63L58.71,125.17Z" transform="translate(-56.63 -25.34)"/><path class="cls-3" d="M76.8,64.08,58.69,74.62,76.8,85.16Z" transform="translate(-56.63 -25.34)"/><path class="cls-3" d="M58.69,99.79l18.07,10.52v-21Z" transform="translate(-56.63 -25.34)"/><path class="cls-3" d="M76.8,59.74v-21l-18,10.51Z" transform="translate(-56.63 -25.34)"/><path class="cls-3" d="M57.94,127.58l16.4,9.51a7.14,7.14,0,0,1,.62.39l.65.42-1.17.7h0l-.08.05-16.3,9.49c-.29.17-.6.32-.93.5v-21.5C57.47,127.32,57.71,127.44,57.94,127.58Z" transform="translate(-56.63 -25.34)"/><path class="cls-3" d="M74.34,111.76v0l.26.18.05,0a1.75,1.75,0,0,1,.27.19l.56.38-.65.42a4.2,4.2,0,0,1-.38.24l-.11.06h0q-8.28,4.8-16.54,9.62a5.19,5.19,0,0,1-.67.28V101.71C63,105.12,68.66,108.43,74.34,111.76Z" transform="translate(-56.63 -25.34)"/><path class="cls-3" d="M74.27,61.16a4,4,0,0,1,.55.37l.66.42-1.17.71h0l-.06,0L58.27,72c-.35.2-.72.38-1.14.6V51.2Z" transform="translate(-56.63 -25.34)"/><path class="cls-4" d="M101.53,123.34V101.8l4.93,2.86,10,5.82q1.4.83,2.82,1.62c.58.32.59.63,0,1L107,120.17c-1.43.83-2.83,1.69-4.25,2.52C102.4,122.92,102,123.1,101.53,123.34Z" transform="translate(-56.63 -25.34)"/><path class="cls-4" d="M102.79,100l18.36-10.68v21.37Z" transform="translate(-56.63 -25.34)"/><path class="cls-4" d="M121.14,135.89,102.8,125.17l18.34-10.68Z" transform="translate(-56.63 -25.34)"/><path class="cls-4" d="M102.72,150.56l18.46-10.74V161.3Z" transform="translate(-56.63 -25.34)"/><path class="cls-4" d="M101.49,173.79v-21.5L120,163Z" transform="translate(-56.63 -25.34)"/><path class="cls-4" d="M124.73,87.31,143.09,98V76.63Z" transform="translate(-56.63 -25.34)"/><path class="cls-4" d="M142,99.88l-.65-.4,0,0c-1-.55-1.95-1.1-2.92-1.67-3.33-1.94-6.64-3.89-10-5.83-1.51-.87-3-1.71-4.56-2.56h0l-.35-.22v.43h0v20.59h0v.38l.35-.16h0c.31-.15.64-.27.94-.45,2.36-1.36,4.72-2.74,7.08-4.11l9.44-5.51.11-.07h0Z" transform="translate(-56.63 -25.34)"/><path class="cls-4" d="M141.33,125.69l.86-.51-1.48-.9h0L138.57,123l-11.27-6.55c-1.24-.72-2.5-1.42-3.85-2.19V136a1.78,1.78,0,0,0,.33-.07l8.06-4.69,9.06-5.3h0l.37-.21Z" transform="translate(-56.63 -25.34)"/><path class="cls-4" d="M120.32,137.88l-1-.59h0c-.9-.6-1.85-1.11-2.78-1.65l-10.1-5.84-4.9-2.83v21.84l18.27-10.62h0Z" transform="translate(-56.63 -25.34)"/></g></svg>