<svg xmlns="http://www.w3.org/2000/svg" width="1136.744" height="166.923" viewBox="0 0 1136.744 166.923">
  <g id="Group_1" data-name="Group 1" transform="translate(-393.787 -471.167)">
    <path id="Path_1" data-name="Path 1" d="M145.031,0H122.8L43.164-123.341a51.539,51.539,0,0,1-4.964-9.712h-.647q.863,4.964.863,21.258V0H20.287V-154.743H43.812l77.479,121.4q4.856,7.554,6.259,10.359h.432q-1.079-6.69-1.079-22.769V-154.743h18.129Z" transform="translate(377 632)" fill="none" stroke="#fff" stroke-width="7"/>
    <path id="Path_2" data-name="Path 2" d="M38.416,0H20.287V-154.743H38.416Z" transform="translate(560 632)" fill="none" stroke="#fff" stroke-width="7"/>
    <path id="Path_3" data-name="Path 3" d="M111.795-138.341H67.12V0H48.991V-138.341H4.424v-16.4H111.795Z" transform="translate(637 632)" fill="none" stroke="#fff" stroke-width="7"/>
    <path id="Path_4" data-name="Path 4" d="M125.607-6.475Q108.45,2.59,82.875,2.59,49.854,2.59,30-18.668T10.144-74.458q0-37.121,22.337-60t56.653-22.877q22.014,0,36.474,6.367v19.316a73.966,73.966,0,0,0-36.689-9.28q-26.654,0-43.218,17.805T29.136-75.537q0,28.272,15.485,45.052T85.249-13.7q23.309,0,40.358-10.359Z" transform="translate(753 632)" fill="none" stroke="#fff" stroke-width="7"/>
    <path id="Path_5" data-name="Path 5" d="M178.052,0H160.031V-103.81q0-12.3,1.511-30.107h-.432a96.252,96.252,0,0,1-4.64,15L103.594,0H94.745L41.977-118.054a92.489,92.489,0,0,1-4.64-15.863h-.432q.863,9.28.863,30.323V0H20.287V-154.743H44.243l47.48,107.91q5.5,12.41,7.122,18.561h.647q4.64-12.733,7.446-18.992l48.452-107.479h22.661Z" transform="translate(996 632)" fill="none" stroke="#fff" stroke-width="7"/>
    <path id="Path_6" data-name="Path 6" d="M133.485-62.588q0,65.178-58.811,65.178-56.329,0-56.329-62.7v-94.637H36.474v93.45q0,47.588,40.143,47.588,38.74,0,38.74-45.97v-95.069h18.129Z" transform="translate(1212 632)" fill="none" stroke="#fff" stroke-width="7"/>
    <path id="Path_7" data-name="Path 7" d="M145.031,0H122.8L43.164-123.341a51.539,51.539,0,0,1-4.964-9.712h-.647q.863,4.964.863,21.258V0H20.287V-154.743H43.812l77.479,121.4q4.856,7.554,6.259,10.359h.432q-1.079-6.69-1.079-22.769V-154.743h18.129Z" transform="translate(1382 632)" fill="none" stroke="#fff" stroke-width="7"/>
  </g>
</svg>
